{
	"asset":{
		"generator":"Khronos glTF Blender I/O v4.3.47",
		"version":"2.0"
	},
	"scene":0,
	"scenes":[
		{
			"name":"Scene",
			"nodes":[
				0
			]
		}
	],
	"nodes":[
		{
			"mesh":0,
			"name":"Plane.006"
		}
	],
	"materials":[
		{
			"doubleSided":true,
			"name":"Material.001",
			"pbrMetallicRoughness":{
				"baseColorFactor":[
					0.9453367590904236,
					0.9245286583900452,
					0.828373908996582,
					1
				],
				"metallicFactor":0,
				"roughnessFactor":0.5
			}
		},
		{
			"doubleSided":true,
			"name":"Material_light",
			"pbrMetallicRoughness":{
				"baseColorFactor":[
					0.9453367590904236,
					0.9245286583900452,
					0.828373908996582,
					1
				],
				"metallicFactor":0,
				"roughnessFactor":0.5
			}
		}
	],
	"meshes":[
		{
			"name":"Plane.089",
			"primitives":[
				{
					"attributes":{
						"POSITION":0,
						"NORMAL":1,
						"TEXCOORD_0":2,
						"COLOR_0":3,
						"COLOR_1":4
					},
					"indices":5,
					"material":0
				},
				{
					"attributes":{
						"POSITION":6,
						"NORMAL":7,
						"TEXCOORD_0":8,
						"COLOR_0":9,
						"COLOR_1":10
					},
					"indices":11,
					"material":1
				}
			]
		}
	],
	"accessors":[
		{
			"bufferView":0,
			"componentType":5126,
			"count":29352,
			"max":[
				0.8255254626274109,
				0.5336233973503113,
				1.567553162574768
			],
			"min":[
				-0.8255254626274109,
				-0.4133368134498596,
				-1.817219614982605
			],
			"type":"VEC3"
		},
		{
			"bufferView":1,
			"componentType":5126,
			"count":29352,
			"type":"VEC3"
		},
		{
			"bufferView":2,
			"componentType":5126,
			"count":29352,
			"type":"VEC2"
		},
		{
			"bufferView":3,
			"componentType":5121,
			"count":29352,
			"normalized":true,
			"type":"VEC4"
		},
		{
			"bufferView":4,
			"componentType":5123,
			"count":29352,
			"normalized":true,
			"type":"VEC4"
		},
		{
			"bufferView":5,
			"componentType":5123,
			"count":92763,
			"type":"SCALAR"
		},
		{
			"bufferView":6,
			"componentType":5126,
			"count":3265,
			"max":[
				0.8081750273704529,
				0.5324280261993408,
				1.526610016822815
			],
			"min":[
				-0.8081750273704529,
				-0.346515953540802,
				-1.8265889883041382
			],
			"type":"VEC3"
		},
		{
			"bufferView":7,
			"componentType":5126,
			"count":3265,
			"type":"VEC3"
		},
		{
			"bufferView":8,
			"componentType":5126,
			"count":3265,
			"type":"VEC2"
		},
		{
			"bufferView":9,
			"componentType":5121,
			"count":3265,
			"normalized":true,
			"type":"VEC4"
		},
		{
			"bufferView":10,
			"componentType":5123,
			"count":3265,
			"normalized":true,
			"type":"VEC4"
		},
		{
			"bufferView":11,
			"componentType":5123,
			"count":10848,
			"type":"SCALAR"
		}
	],
	"bufferViews":[
		{
			"buffer":0,
			"byteLength":352224,
			"byteOffset":0,
			"target":34962
		},
		{
			"buffer":0,
			"byteLength":352224,
			"byteOffset":352224,
			"target":34962
		},
		{
			"buffer":0,
			"byteLength":234816,
			"byteOffset":704448,
			"target":34962
		},
		{
			"buffer":0,
			"byteLength":117408,
			"byteOffset":939264,
			"target":34962
		},
		{
			"buffer":0,
			"byteLength":234816,
			"byteOffset":1056672,
			"target":34962
		},
		{
			"buffer":0,
			"byteLength":185526,
			"byteOffset":1291488,
			"target":34963
		},
		{
			"buffer":0,
			"byteLength":39180,
			"byteOffset":1477016,
			"target":34962
		},
		{
			"buffer":0,
			"byteLength":39180,
			"byteOffset":1516196,
			"target":34962
		},
		{
			"buffer":0,
			"byteLength":26120,
			"byteOffset":1555376,
			"target":34962
		},
		{
			"buffer":0,
			"byteLength":13060,
			"byteOffset":1581496,
			"target":34962
		},
		{
			"buffer":0,
			"byteLength":26120,
			"byteOffset":1594556,
			"target":34962
		},
		{
			"buffer":0,
			"byteLength":21696,
			"byteOffset":1620676,
			"target":34963
		}
	],
	"buffers":[
		{
			"byteLength":1642372,
			"uri":"scene1.bin"
		}
	]
}
